<svg width="144.87mm" height="42.532mm" version="1.1" viewBox="0 0 144.87 42.532" xmlns="http://www.w3.org/2000/svg">
 <g transform="translate(-16.258 -7.5035)">
  <g>
   <g fill="#3a3a3c">
    <path d="m24.97 26.422q0 1.8308 1.4748 2.4919 1.5257 0.66113 3.6616 0.71198h3.8142q0.91541 0 2.2377 0.05086 1.3223 0.05086 2.7462 0.30514 1.424 0.20342 2.7971 0.66113 1.424 0.4577 2.5428 1.3223t1.78 2.1868q0.71198 1.2714 0.71198 3.1531 0 1.8308-0.71198 3.1022-0.66113 1.2714-1.78 2.136-1.068 0.8137-2.4411 1.3223-1.3731 0.4577-2.7971 0.71198-1.424 0.20342-2.7462 0.25428-1.2714 0.05086-2.1868 0.05086v-3.7125q0.8137 0 2.2885 0.05086 1.4748 0.05086 2.8988-0.25428 1.4748-0.30514 2.5428-1.1188t1.068-2.5428q0-1.2714-0.61027-2.0342t-1.5765-1.1697q-0.91541-0.40685-2.0342-0.50856-1.068-0.10171-2.0342-0.10171h-6.5096q-1.9834 0-3.6108-0.50856t-2.7971-1.424q-1.1697-0.96626-1.8308-2.2885-0.61027-1.3223-0.61027-2.9496 0-1.9834 0.96626-3.3056t2.4919-2.0851q1.5257-0.8137 3.3565-1.1697 1.8817-0.35599 3.6616-0.35599h15.003v3.8651l-16.63 0.10171q-0.4577 0.05086-1.3223 0.20342-0.86455 0.10171-1.7291 0.40685-0.8137 0.30514-1.4748 0.91541-0.61027 0.55942-0.61027 1.5257z"/>
    <path d="m63.265 41.12q1.8308 0 3.4074-0.71198 1.6274-0.71198 2.8479-1.8817 1.2205-1.2205 1.9325-2.8479t0.71198-3.4582v-0.10171h3.8651v0.10171q0 2.6445-1.0171 4.9839-1.0171 2.2885-2.7462 4.0176-1.7291 1.7291-4.0685 2.7462t-4.933 1.0171q-2.6445 0-4.9839-1.0171-2.2885-1.0171-4.0176-2.7462-1.7291-1.7291-2.7462-4.0176-1.0171-2.3394-1.0171-4.9839v-12.765h3.8651v12.765q0 1.8308 0.66113 3.4582 0.71198 1.6274 1.8817 2.8479 1.2205 1.1697 2.8479 1.8817t3.5091 0.71198z"/>
    <path d="m114.17 19.353q2.6445 0 4.9839 1.0171 2.3394 1.0171 4.0685 2.7462 1.7291 1.7291 2.7462 4.0685 1.0171 2.2885 1.068 4.933l-0.10171 12.765h-3.8142v-12.765q0-1.8817-0.71198-3.5091-0.66113-1.6274-1.8817-2.7971-1.2206-1.2205-2.8479-1.8817-1.6274-0.71198-3.5091-0.71198-1.8308 0-3.4582 0.71198-1.5765 0.66113-2.7971 1.8817-1.2206 1.1697-1.9325 2.7971t-0.71198 3.5091v12.765h-3.8651v-12.765q0-1.8817-0.71198-3.5091-0.66113-1.6274-1.8817-2.7971-1.1697-1.2205-2.7971-1.8817-1.6274-0.71198-3.5091-0.71198t-3.5091 0.71198q-1.6274 0.66113-2.8479 1.8817-1.2205 1.1697-1.9325 2.7971-0.66113 1.6274-0.66113 3.5091h-3.8142q0-2.6445 1.0171-4.933 1.0171-2.3394 2.7462-4.0685t4.0176-2.7462q2.3394-1.0171 4.9839-1.0171 3.4582 0 6.3061 1.6782 2.8988 1.6274 4.5262 4.3228 1.7291-2.6954 4.5262-4.3228 2.8479-1.6782 6.3062-1.6782z"/>
    <path d="m143.41 45.036q-2.6445 0-4.9839-0.96626-2.2885-1.0171-4.0176-2.7462-1.7291-1.7291-2.7462-4.0176-0.96627-2.3394-0.96627-4.9839 0-2.5937 0.96627-4.8822 1.0171-2.3394 2.7462-4.0685t4.0176-2.7462q2.3394-1.0171 4.9839-1.0171 2.5937 0 4.8822 1.0171 2.3394 1.0171 4.0685 2.7462 1.7291 1.7291 2.7462 4.0685 1.0171 2.2885 1.0171 4.8822v2.4411h-12.714v-3.8142h8.8998q0-1.5257-0.71198-2.8988-0.66113-1.3731-1.8817-2.3902-1.2206-1.0171-2.8479-1.6274t-3.4582-0.61027q-1.8817 0-3.5091 0.71198-1.6274 0.66113-2.8479 1.8817-1.1697 1.2205-1.8817 2.8479-0.66113 1.6274-0.66113 3.4582 0 1.8817 0.66113 3.5091 0.71198 1.6274 1.8817 2.8479 1.2206 1.1697 2.8479 1.8817 1.6274 0.66113 3.5091 0.66113z"/>
    <g aria-label="-">
     <path d="m137.46 12.503h13.384v4.0725h-13.384z" stroke-width="1.2714px"/>
    </g>
   </g>
   <path transform="matrix(.26458 0 0 .26458 16.258 7.5035)" d="m218.98 70.092a15.124 15.017 0 0 0-15.123 15.018 15.124 15.017 0 0 0 15.123 15.016 15.124 15.017 0 0 0 15.125-15.016 15.124 15.017 0 0 0-15.125-15.018zm0 9.5254a5.4919 5.4919 0 0 1 5.4922 5.4922 5.4919 5.4919 0 0 1-5.4922 5.4922 5.4919 5.4919 0 0 1-5.4922-5.4922 5.4919 5.4919 0 0 1 5.4922-5.4922z" fill="#d72d35" stroke-width="4.8053"/>
  </g>
 </g>
</svg>
