<svg width="167" height="37" viewBox="0 0 167 37" fill="none" xmlns="http://www.w3.org/2000/svg">
<path d="M24.0027 16.1745L17.1483 11.1377V31.6279C17.1483 31.6334 17.1501 31.6389 17.1501 31.6443V34.0003H18.6046H19.5955V31.4418C20.5135 31.0914 21.342 30.5494 22.0263 29.865C23.2782 28.6131 24.0575 26.8849 24.0575 24.9889V16.2803C24.0575 16.2402 24.0374 16.2 24.0027 16.1745Z" fill="#123D66"/>
<path d="M15.411 26.153L8.5 21.1436V26.1785C8.5 29.1166 10.3632 31.6405 12.9656 32.6333V34.0001H13.9565H15.411V30.489V29.9652V26.153Z" fill="#F99E49"/>
<path d="M17.1501 2V8.86353L24.0575 13.9478V8.85988C24.0575 5.4783 17.1501 2 17.1501 2Z" fill="#26A8AC"/>
<path d="M8.5 18.8765L15.411 23.8859V3.18945C15.411 3.18945 8.5 6.66775 8.5 10.0493V18.8765Z" fill="#EF4044"/>
<path d="M55.2074 14.8438C55.1278 14.0994 54.7926 13.5199 54.2017 13.1051C53.6165 12.6903 52.8551 12.483 51.9176 12.483C51.2585 12.483 50.6932 12.5824 50.2216 12.7812C49.75 12.9801 49.3892 13.25 49.1392 13.5909C48.8892 13.9318 48.7614 14.321 48.7557 14.7585C48.7557 15.1222 48.8381 15.4375 49.0028 15.7045C49.1733 15.9716 49.4034 16.1989 49.6932 16.3864C49.983 16.5682 50.304 16.7216 50.6562 16.8466C51.0085 16.9716 51.3636 17.0767 51.7216 17.1619L53.358 17.571C54.017 17.7244 54.6506 17.9318 55.2585 18.1932C55.8722 18.4545 56.4205 18.7841 56.9034 19.1818C57.392 19.5795 57.7784 20.0597 58.0625 20.6222C58.3466 21.1847 58.4886 21.8437 58.4886 22.5994C58.4886 23.6222 58.2273 24.5227 57.7045 25.3011C57.1818 26.0739 56.4261 26.679 55.4375 27.1165C54.4545 27.5483 53.2642 27.7642 51.8665 27.7642C50.5085 27.7642 49.3295 27.554 48.3295 27.1335C47.3352 26.7131 46.5568 26.0994 45.9943 25.2926C45.4375 24.4858 45.1364 23.5028 45.0909 22.3438H48.2017C48.2472 22.9517 48.4347 23.4574 48.7642 23.8608C49.0938 24.2642 49.5227 24.5653 50.0511 24.7642C50.5852 24.9631 51.1818 25.0625 51.8409 25.0625C52.5284 25.0625 53.1307 24.9602 53.6477 24.7557C54.1705 24.5455 54.5795 24.2557 54.875 23.8864C55.1705 23.5114 55.321 23.0739 55.3267 22.5739C55.321 22.1193 55.1875 21.7443 54.9261 21.4489C54.6648 21.1477 54.2983 20.8977 53.8267 20.6989C53.3608 20.4943 52.8153 20.3125 52.1903 20.1534L50.2045 19.642C48.767 19.2727 47.6307 18.7131 46.7955 17.9631C45.9659 17.2074 45.5511 16.2045 45.5511 14.9545C45.5511 13.9261 45.8295 13.0256 46.3864 12.2528C46.9489 11.4801 47.7131 10.8807 48.679 10.4545C49.6449 10.0227 50.7386 9.80682 51.9602 9.80682C53.1989 9.80682 54.2841 10.0227 55.2159 10.4545C56.1534 10.8807 56.8892 11.4744 57.4233 12.2358C57.9574 12.9915 58.233 13.8608 58.25 14.8438H55.2074ZM69.5149 21.9943V14.4091H72.6001V27.5H69.6087V25.1733H69.4723C69.1768 25.9062 68.6911 26.5057 68.0149 26.9716C67.3445 27.4375 66.5178 27.6705 65.5348 27.6705C64.6768 27.6705 63.9183 27.4801 63.2592 27.0994C62.6058 26.7131 62.0945 26.1534 61.7251 25.4205C61.3558 24.6818 61.1712 23.7898 61.1712 22.7443V14.4091H64.2564V22.267C64.2564 23.0966 64.4837 23.7557 64.9382 24.2443C65.3928 24.733 65.9893 24.9773 66.728 24.9773C67.1825 24.9773 67.6229 24.8665 68.049 24.6449C68.4751 24.4233 68.8246 24.0938 69.0973 23.6562C69.3757 23.2131 69.5149 22.6591 69.5149 21.9943ZM75.7727 27.5V14.4091H78.7216V16.6335H78.875C79.1477 15.8835 79.5994 15.2983 80.2301 14.8778C80.8608 14.4517 81.6136 14.2386 82.4886 14.2386C83.375 14.2386 84.1222 14.4545 84.7301 14.8864C85.3438 15.3125 85.7756 15.8949 86.0256 16.6335H86.1619C86.4517 15.9062 86.9403 15.3267 87.6278 14.8949C88.321 14.4574 89.142 14.2386 90.0909 14.2386C91.2955 14.2386 92.2784 14.6193 93.0398 15.3807C93.8011 16.142 94.1818 17.2528 94.1818 18.7131V27.5H91.0881V19.1903C91.0881 18.3778 90.8722 17.7841 90.4403 17.4091C90.0085 17.0284 89.4801 16.8381 88.8551 16.8381C88.1108 16.8381 87.5284 17.071 87.108 17.5369C86.6932 17.9972 86.4858 18.5966 86.4858 19.3352V27.5H83.4602V19.0625C83.4602 18.3864 83.2557 17.8466 82.8466 17.4432C82.4432 17.0398 81.9148 16.8381 81.2614 16.8381C80.8182 16.8381 80.4148 16.9517 80.0511 17.179C79.6875 17.4006 79.3977 17.7159 79.1818 18.125C78.9659 18.5284 78.858 19 78.858 19.5398V27.5H75.7727ZM103.107 27.7557C101.795 27.7557 100.661 27.483 99.7067 26.9375C98.7578 26.3864 98.0277 25.608 97.5163 24.6023C97.005 23.5909 96.7493 22.4006 96.7493 21.0312C96.7493 19.6847 97.005 18.5028 97.5163 17.4858C98.0334 16.4631 98.755 15.6676 99.6811 15.0994C100.607 14.5256 101.695 14.2386 102.945 14.2386C103.752 14.2386 104.513 14.3693 105.229 14.6307C105.951 14.8864 106.587 15.2841 107.138 15.8239C107.695 16.3636 108.133 17.0511 108.451 17.8864C108.769 18.7159 108.928 19.7045 108.928 20.8523V21.7983H98.1982V19.7188H105.971C105.965 19.1278 105.837 18.6023 105.587 18.142C105.337 17.6761 104.988 17.3097 104.539 17.0426C104.096 16.7756 103.579 16.642 102.988 16.642C102.357 16.642 101.803 16.7955 101.326 17.1023C100.849 17.4034 100.477 17.8011 100.21 18.2955C99.9482 18.7841 99.8146 19.321 99.8089 19.9062V21.7216C99.8089 22.483 99.9482 23.1364 100.227 23.6818C100.505 24.2216 100.894 24.6364 101.394 24.9261C101.894 25.2102 102.479 25.3523 103.15 25.3523C103.599 25.3523 104.005 25.2898 104.369 25.1648C104.732 25.0341 105.048 24.8438 105.315 24.5938C105.582 24.3438 105.783 24.0341 105.92 23.6648L108.8 23.9886C108.619 24.75 108.272 25.4148 107.761 25.983C107.255 26.5455 106.607 26.983 105.817 27.2955C105.028 27.6023 104.124 27.7557 103.107 27.7557ZM101.675 12.6875L103.585 8.79261H106.602L103.985 12.6875H101.675ZM117.628 27.5V10.0455H120.79V24.8494H128.477V27.5H117.628ZM131.222 10.0455H135.091L140.273 22.6932H140.477L145.659 10.0455H149.528V27.5H146.494V15.5085H146.332L141.509 27.4489H139.241L134.418 15.483H134.256V27.5H131.222V10.0455ZM162.457 14.8438C162.378 14.0994 162.043 13.5199 161.452 13.1051C160.866 12.6903 160.105 12.483 159.168 12.483C158.509 12.483 157.943 12.5824 157.472 12.7812C157 12.9801 156.639 13.25 156.389 13.5909C156.139 13.9318 156.011 14.321 156.006 14.7585C156.006 15.1222 156.088 15.4375 156.253 15.7045C156.423 15.9716 156.653 16.1989 156.943 16.3864C157.233 16.5682 157.554 16.7216 157.906 16.8466C158.259 16.9716 158.614 17.0767 158.972 17.1619L160.608 17.571C161.267 17.7244 161.901 17.9318 162.509 18.1932C163.122 18.4545 163.67 18.7841 164.153 19.1818C164.642 19.5795 165.028 20.0597 165.312 20.6222C165.597 21.1847 165.739 21.8437 165.739 22.5994C165.739 23.6222 165.477 24.5227 164.955 25.3011C164.432 26.0739 163.676 26.679 162.688 27.1165C161.705 27.5483 160.514 27.7642 159.116 27.7642C157.759 27.7642 156.58 27.554 155.58 27.1335C154.585 26.7131 153.807 26.0994 153.244 25.2926C152.688 24.4858 152.386 23.5028 152.341 22.3438H155.452C155.497 22.9517 155.685 23.4574 156.014 23.8608C156.344 24.2642 156.773 24.5653 157.301 24.7642C157.835 24.9631 158.432 25.0625 159.091 25.0625C159.778 25.0625 160.381 24.9602 160.898 24.7557C161.42 24.5455 161.83 24.2557 162.125 23.8864C162.42 23.5114 162.571 23.0739 162.577 22.5739C162.571 22.1193 162.438 21.7443 162.176 21.4489C161.915 21.1477 161.548 20.8977 161.077 20.6989C160.611 20.4943 160.065 20.3125 159.44 20.1534L157.455 19.642C156.017 19.2727 154.881 18.7131 154.045 17.9631C153.216 17.2074 152.801 16.2045 152.801 14.9545C152.801 13.9261 153.08 13.0256 153.636 12.2528C154.199 11.4801 154.963 10.8807 155.929 10.4545C156.895 10.0227 157.989 9.80682 159.21 9.80682C160.449 9.80682 161.534 10.0227 162.466 10.4545C163.403 10.8807 164.139 11.4744 164.673 12.2358C165.207 12.9915 165.483 13.8608 165.5 14.8438H162.457Z" fill="#111928"/>
</svg>
