<svg xmlns="http://www.w3.org/2000/svg" viewBox="0 0 53.975 53.975" height="204" width="204"><path d="M30.418 30.351q0 1.848 1.488 2.515 1.54.667 3.694.718h3.849q.924 0 2.258.051 1.334.052 2.77.308 1.437.206 2.823.667 1.437.462 2.565 1.335 1.13.872 1.796 2.206.719 1.283.719 3.181 0 1.848-.719 3.13-.667 1.283-1.796 2.156-1.077.82-2.463 1.334-1.385.462-2.822.718-1.437.205-2.77.257-1.284.051-2.207.051v-3.746q.82 0 2.309.052 1.488.05 2.925-.257 1.488-.308 2.565-1.129 1.078-.82 1.078-2.566 0-1.282-.616-2.052-.615-.77-1.59-1.18-.924-.41-2.053-.513-1.078-.103-2.052-.103H35.6q-2 0-3.643-.513-1.642-.513-2.822-1.437-1.18-.975-1.847-2.309-.616-1.334-.616-2.976 0-2.001.975-3.336.975-1.334 2.514-2.103 1.54-.821 3.387-1.18 1.898-.36 3.694-.36H52.38v3.9l-16.78.103q-.461.051-1.334.205-.872.103-1.744.41-.821.308-1.488.924-.616.564-.616 1.54z" style="font-style:normal;font-variant:normal;font-weight:400;font-stretch:normal;font-size:40px;line-height:125%;font-family:'Dissolve Regular';-inkscape-font-specification:'Dissolve Regular, ';letter-spacing:0;word-spacing:0;fill:#fff;fill-opacity:1;stroke:none;stroke-width:1.28283px;stroke-linecap:butt;stroke-linejoin:miter;stroke-opacity:1" transform="translate(-12.538 -6.92)"/><g style="font-style:normal;font-weight:400;font-size:40px;line-height:125%;font-family:sans-serif;letter-spacing:0;word-spacing:0;fill:#fff;fill-opacity:1;stroke:none;stroke-width:1px;stroke-linecap:butt;stroke-linejoin:miter;stroke-opacity:1" aria-label="-"><path style="fill:#fff" d="M330.51 164.196h10.527v3.203H330.51z" transform="matrix(1.28283 0 0 1.28283 -403.483 -200.56)"/></g><path transform="scale(.26458)" d="M93.393 145.23a5.541 5.541 0 0 0-.192.004 5.541 5.541 0 0 0-.197.01 5.541 5.541 0 0 0-.197.018 5.541 5.541 0 0 0-.198.023 5.541 5.541 0 0 0-.195.031 5.541 5.541 0 0 0-.193.04 5.541 5.541 0 0 0-.194.044 5.541 5.541 0 0 0-.191.053 5.541 5.541 0 0 0-.188.059 5.541 5.541 0 0 0-.187.066 5.541 5.541 0 0 0-.184.072 5.541 5.541 0 0 0-.181.079 5.541 5.541 0 0 0-.18.085 5.541 5.541 0 0 0-.176.092 5.541 5.541 0 0 0-.172.098 5.541 5.541 0 0 0-.168.103 5.541 5.541 0 0 0-.164.11 5.541 5.541 0 0 0-.162.117 5.541 5.541 0 0 0-.156.121 5.541 5.541 0 0 0-.15.127 5.541 5.541 0 0 0-.149.13 5.541 5.541 0 0 0-.142.14 5.541 5.541 0 0 0-.137.142 5.541 5.541 0 0 0-.133.147 5.541 5.541 0 0 0-.127.152 5.541 5.541 0 0 0-.121.156 5.541 5.541 0 0 0-.115.16 5.541 5.541 0 0 0-.112.164 5.541 5.541 0 0 0-.103.168 5.541 5.541 0 0 0-.098.172 5.541 5.541 0 0 0-.092.176 5.541 5.541 0 0 0-.085.18 5.541 5.541 0 0 0-.08.181 5.541 5.541 0 0 0-.073.184 5.541 5.541 0 0 0-.064.186 5.541 5.541 0 0 0-.06.189 5.541 5.541 0 0 0-.054.191 5.541 5.541 0 0 0-.044.192 5.541 5.541 0 0 0-.04.195 5.541 5.541 0 0 0-.03.195 5.541 5.541 0 0 0-.024.196 5.541 5.541 0 0 0-.02.197 5.541 5.541 0 0 0-.01.2 5.541 5.541 0 0 0-.003.196 5.541 5.541 0 0 0 .003.192 5.541 5.541 0 0 0 .01.2 5.541 5.541 0 0 0 .018.196 5.541 5.541 0 0 0 .025.196 5.541 5.541 0 0 0 .031.195 5.541 5.541 0 0 0 .04.195 5.541 5.541 0 0 0 .044.192 5.541 5.541 0 0 0 .053.191 5.541 5.541 0 0 0 .059.19 5.541 5.541 0 0 0 .064.185 5.541 5.541 0 0 0 .072.186 5.541 5.541 0 0 0 .08.181 5.541 5.541 0 0 0 .085.178 5.541 5.541 0 0 0 .091.176 5.541 5.541 0 0 0 .098.172 5.541 5.541 0 0 0 .105.168 5.541 5.541 0 0 0 .11.166 5.541 5.541 0 0 0 .115.16 5.541 5.541 0 0 0 .121.156 5.541 5.541 0 0 0 .127.152 5.541 5.541 0 0 0 .133.147 5.541 5.541 0 0 0 .137.143 5.541 5.541 0 0 0 .142.136 5.541 5.541 0 0 0 .147.133 5.541 5.541 0 0 0 .152.127 5.541 5.541 0 0 0 .156.121 5.541 5.541 0 0 0 .16.117 5.541 5.541 0 0 0 .166.11 5.541 5.541 0 0 0 .168.103 5.541 5.541 0 0 0 .172.1 5.541 5.541 0 0 0 .176.092 5.541 5.541 0 0 0 .178.084 5.541 5.541 0 0 0 .181.08 5.541 5.541 0 0 0 .184.072 5.541 5.541 0 0 0 .188.066 5.541 5.541 0 0 0 .189.059 5.541 5.541 0 0 0 .19.053 5.541 5.541 0 0 0 .193.045 5.541 5.541 0 0 0 .193.039 5.541 5.541 0 0 0 .196.03 5.541 5.541 0 0 0 .197.026 5.541 5.541 0 0 0 .197.018 5.541 5.541 0 0 0 .197.01 5.541 5.541 0 0 0 .198.004 5.541 5.541 0 0 0 .193-.004 5.541 5.541 0 0 0 .197-.01 5.541 5.541 0 0 0 .197-.018 5.541 5.541 0 0 0 .198-.023 5.541 5.541 0 0 0 .195-.033 5.541 5.541 0 0 0 .193-.037 5.541 5.541 0 0 0 .194-.047 5.541 5.541 0 0 0 .19-.051 5.541 5.541 0 0 0 .189-.059 5.541 5.541 0 0 0 .187-.066 5.541 5.541 0 0 0 .184-.072 5.541 5.541 0 0 0 .181-.08 5.541 5.541 0 0 0 .18-.084 5.541 5.541 0 0 0 .174-.092 5.541 5.541 0 0 0 .172-.098 5.541 5.541 0 0 0 .17-.103 5.541 5.541 0 0 0 .164-.112 5.541 5.541 0 0 0 .16-.115 5.541 5.541 0 0 0 .156-.121 5.541 5.541 0 0 0 .153-.127 5.541 5.541 0 0 0 .148-.133 5.541 5.541 0 0 0 .14-.137 5.541 5.541 0 0 0 .14-.142 5.541 5.541 0 0 0 .132-.147 5.541 5.541 0 0 0 .127-.152 5.541 5.541 0 0 0 .121-.156 5.541 5.541 0 0 0 .115-.16 5.541 5.541 0 0 0 .112-.164 5.541 5.541 0 0 0 .103-.17 5.541 5.541 0 0 0 .098-.172 5.541 5.541 0 0 0 .092-.174 5.541 5.541 0 0 0 .086-.18 5.541 5.541 0 0 0 .078-.181 5.541 5.541 0 0 0 .072-.184 5.541 5.541 0 0 0 .066-.188 5.541 5.541 0 0 0 .059-.187 5.541 5.541 0 0 0 .053-.191 5.541 5.541 0 0 0 .047-.194 5.541 5.541 0 0 0 .037-.193 5.541 5.541 0 0 0 .033-.195 5.541 5.541 0 0 0 .023-.198 5.541 5.541 0 0 0 .018-.197 5.541 5.541 0 0 0 .012-.197 5.541 5.541 0 0 0 .002-.198 5.541 5.541 0 0 0-.002-.193 5.541 5.541 0 0 0-.012-.197 5.541 5.541 0 0 0-.018-.197 5.541 5.541 0 0 0-.023-.196 5.541 5.541 0 0 0-.031-.195 5.541 5.541 0 0 0-.04-.195 5.541 5.541 0 0 0-.044-.192 5.541 5.541 0 0 0-.053-.191 5.541 5.541 0 0 0-.059-.19 5.541 5.541 0 0 0-.066-.187 5.541 5.541 0 0 0-.072-.184 5.541 5.541 0 0 0-.078-.181 5.541 5.541 0 0 0-.086-.178 5.541 5.541 0 0 0-.092-.176 5.541 5.541 0 0 0-.098-.172 5.541 5.541 0 0 0-.103-.168 5.541 5.541 0 0 0-.11-.166 5.541 5.541 0 0 0-.115-.16 5.541 5.541 0 0 0-.123-.156 5.541 5.541 0 0 0-.127-.152 5.541 5.541 0 0 0-.13-.147 5.541 5.541 0 0 0-.14-.143 5.541 5.541 0 0 0-.14-.138 5.541 5.541 0 0 0-.149-.131 5.541 5.541 0 0 0-.152-.127 5.541 5.541 0 0 0-.156-.123 5.541 5.541 0 0 0-.16-.115 5.541 5.541 0 0 0-.164-.11 5.541 5.541 0 0 0-.168-.105 5.541 5.541 0 0 0-.172-.098 5.541 5.541 0 0 0-.176-.092 5.541 5.541 0 0 0-.178-.086 5.541 5.541 0 0 0-.181-.078 5.541 5.541 0 0 0-.186-.072 5.541 5.541 0 0 0-.185-.066 5.541 5.541 0 0 0-.19-.059 5.541 5.541 0 0 0-.191-.053 5.541 5.541 0 0 0-.192-.045 5.541 5.541 0 0 0-.195-.039 5.541 5.541 0 0 0-.195-.03 5.541 5.541 0 0 0-.196-.026 5.541 5.541 0 0 0-.197-.018 5.541 5.541 0 0 0-.197-.01 5.541 5.541 0 0 0-.2-.004z" style="fill:none;fill-opacity:1;stroke-width:4.84849"/><path transform="scale(.26458)" d="M93.393 135.62a15.26 15.152 0 0 0-15.26 15.151 15.26 15.152 0 0 0 15.26 15.15 15.26 15.152 0 0 0 15.26-15.15 15.26 15.152 0 0 0-15.26-15.152zm0 9.61a5.541 5.541 0 0 1 .199.004 5.541 5.541 0 0 1 .197.01 5.541 5.541 0 0 1 .197.018 5.541 5.541 0 0 1 .196.025 5.541 5.541 0 0 1 .195.031 5.541 5.541 0 0 1 .195.04 5.541 5.541 0 0 1 .192.044 5.541 5.541 0 0 1 .191.053 5.541 5.541 0 0 1 .19.059 5.541 5.541 0 0 1 .185.066 5.541 5.541 0 0 1 .186.072 5.541 5.541 0 0 1 .181.078 5.541 5.541 0 0 1 .178.086 5.541 5.541 0 0 1 .176.092 5.541 5.541 0 0 1 .172.098 5.541 5.541 0 0 1 .168.105 5.541 5.541 0 0 1 .164.11 5.541 5.541 0 0 1 .16.115 5.541 5.541 0 0 1 .156.123 5.541 5.541 0 0 1 .152.127 5.541 5.541 0 0 1 .149.13 5.541 5.541 0 0 1 .14.14 5.541 5.541 0 0 1 .14.142 5.541 5.541 0 0 1 .13.147 5.541 5.541 0 0 1 .127.152 5.541 5.541 0 0 1 .123.156 5.541 5.541 0 0 1 .115.16 5.541 5.541 0 0 1 .11.166 5.541 5.541 0 0 1 .103.168 5.541 5.541 0 0 1 .098.172 5.541 5.541 0 0 1 .092.176 5.541 5.541 0 0 1 .086.178 5.541 5.541 0 0 1 .078.181 5.541 5.541 0 0 1 .072.184 5.541 5.541 0 0 1 .066.187 5.541 5.541 0 0 1 .059.19 5.541 5.541 0 0 1 .053.191 5.541 5.541 0 0 1 .045.192 5.541 5.541 0 0 1 .039.195 5.541 5.541 0 0 1 .03.195 5.541 5.541 0 0 1 .024.196 5.541 5.541 0 0 1 .018.197 5.541 5.541 0 0 1 .012.197 5.541 5.541 0 0 1 .002.193 5.541 5.541 0 0 1-.002.198 5.541 5.541 0 0 1-.012.197 5.541 5.541 0 0 1-.018.197 5.541 5.541 0 0 1-.023.198 5.541 5.541 0 0 1-.033.195 5.541 5.541 0 0 1-.037.193 5.541 5.541 0 0 1-.047.194 5.541 5.541 0 0 1-.053.191 5.541 5.541 0 0 1-.059.187 5.541 5.541 0 0 1-.066.188 5.541 5.541 0 0 1-.072.184 5.541 5.541 0 0 1-.078.181 5.541 5.541 0 0 1-.086.18 5.541 5.541 0 0 1-.092.174 5.541 5.541 0 0 1-.098.172 5.541 5.541 0 0 1-.103.17 5.541 5.541 0 0 1-.112.164 5.541 5.541 0 0 1-.115.16 5.541 5.541 0 0 1-.121.156 5.541 5.541 0 0 1-.127.152 5.541 5.541 0 0 1-.133.147 5.541 5.541 0 0 1-.138.142 5.541 5.541 0 0 1-.141.137 5.541 5.541 0 0 1-.148.133 5.541 5.541 0 0 1-.153.127 5.541 5.541 0 0 1-.156.121 5.541 5.541 0 0 1-.16.115 5.541 5.541 0 0 1-.164.112 5.541 5.541 0 0 1-.17.103 5.541 5.541 0 0 1-.172.098 5.541 5.541 0 0 1-.174.092 5.541 5.541 0 0 1-.18.083 5.541 5.541 0 0 1-.181.08 5.541 5.541 0 0 1-.184.073 5.541 5.541 0 0 1-.187.066 5.541 5.541 0 0 1-.19.059 5.541 5.541 0 0 1-.19.05 5.541 5.541 0 0 1-.193.048 5.541 5.541 0 0 1-.193.037 5.541 5.541 0 0 1-.195.033 5.541 5.541 0 0 1-.198.023 5.541 5.541 0 0 1-.197.018 5.541 5.541 0 0 1-.197.01 5.541 5.541 0 0 1-.193.004 5.541 5.541 0 0 1-.198-.004 5.541 5.541 0 0 1-.197-.01 5.541 5.541 0 0 1-.197-.018 5.541 5.541 0 0 1-.197-.025 5.541 5.541 0 0 1-.196-.031 5.541 5.541 0 0 1-.193-.04 5.541 5.541 0 0 1-.194-.044 5.541 5.541 0 0 1-.189-.053 5.541 5.541 0 0 1-.19-.059 5.541 5.541 0 0 1-.187-.066 5.541 5.541 0 0 1-.184-.072 5.541 5.541 0 0 1-.181-.08 5.541 5.541 0 0 1-.178-.084 5.541 5.541 0 0 1-.176-.092 5.541 5.541 0 0 1-.172-.1 5.541 5.541 0 0 1-.168-.103 5.541 5.541 0 0 1-.166-.11 5.541 5.541 0 0 1-.16-.117 5.541 5.541 0 0 1-.156-.121 5.541 5.541 0 0 1-.152-.127 5.541 5.541 0 0 1-.147-.133 5.541 5.541 0 0 1-.142-.137 5.541 5.541 0 0 1-.137-.142 5.541 5.541 0 0 1-.133-.147 5.541 5.541 0 0 1-.127-.152 5.541 5.541 0 0 1-.12-.156 5.541 5.541 0 0 1-.116-.16 5.541 5.541 0 0 1-.11-.166 5.541 5.541 0 0 1-.105-.168 5.541 5.541 0 0 1-.098-.172 5.541 5.541 0 0 1-.091-.176 5.541 5.541 0 0 1-.084-.178 5.541 5.541 0 0 1-.08-.181 5.541 5.541 0 0 1-.073-.186 5.541 5.541 0 0 1-.064-.185 5.541 5.541 0 0 1-.059-.19 5.541 5.541 0 0 1-.053-.191 5.541 5.541 0 0 1-.044-.192 5.541 5.541 0 0 1-.04-.195 5.541 5.541 0 0 1-.03-.195 5.541 5.541 0 0 1-.026-.196 5.541 5.541 0 0 1-.018-.197 5.541 5.541 0 0 1-.01-.2 5.541 5.541 0 0 1-.003-.19 5.541 5.541 0 0 1 .003-.198 5.541 5.541 0 0 1 .01-.199 5.541 5.541 0 0 1 .02-.197 5.541 5.541 0 0 1 .023-.196 5.541 5.541 0 0 1 .031-.195 5.541 5.541 0 0 1 .04-.195 5.541 5.541 0 0 1 .044-.192 5.541 5.541 0 0 1 .053-.191 5.541 5.541 0 0 1 .06-.19 5.541 5.541 0 0 1 .065-.185 5.541 5.541 0 0 1 .072-.184 5.541 5.541 0 0 1 .08-.181 5.541 5.541 0 0 1 .086-.18 5.541 5.541 0 0 1 .092-.176 5.541 5.541 0 0 1 .098-.172 5.541 5.541 0 0 1 .103-.168 5.541 5.541 0 0 1 .112-.164 5.541 5.541 0 0 1 .115-.16 5.541 5.541 0 0 1 .121-.156 5.541 5.541 0 0 1 .127-.152 5.541 5.541 0 0 1 .133-.147 5.541 5.541 0 0 1 .137-.142 5.541 5.541 0 0 1 .142-.14 5.541 5.541 0 0 1 .149-.13 5.541 5.541 0 0 1 .15-.127 5.541 5.541 0 0 1 .156-.121 5.541 5.541 0 0 1 .162-.117 5.541 5.541 0 0 1 .164-.11 5.541 5.541 0 0 1 .168-.103 5.541 5.541 0 0 1 .172-.098 5.541 5.541 0 0 1 .176-.092 5.541 5.541 0 0 1 .18-.085 5.541 5.541 0 0 1 .181-.079 5.541 5.541 0 0 1 .184-.072 5.541 5.541 0 0 1 .187-.066 5.541 5.541 0 0 1 .188-.059 5.541 5.541 0 0 1 .191-.053 5.541 5.541 0 0 1 .194-.045 5.541 5.541 0 0 1 .193-.039 5.541 5.541 0 0 1 .195-.03 5.541 5.541 0 0 1 .198-.024 5.541 5.541 0 0 1 .197-.018 5.541 5.541 0 0 1 .197-.01 5.541 5.541 0 0 1 .192-.004z" style="fill:#fff;fill-opacity:1;stroke-width:4.84849"/></svg>