<svg width="56" height="74" viewBox="0 0 56 74" fill="none" xmlns="http://www.w3.org/2000/svg">
<path d="M8.15968 29.2201C8.15968 31.9143 9.24019 33.7479 11.4012 34.7207C13.6367 35.6936 16.3194 36.2175 19.4491 36.2924H27.8323C29.1737 36.2924 30.8131 36.3298 32.7505 36.4046C34.688 36.4794 36.6999 36.7039 38.7864 37.0781C40.8729 37.3775 42.9221 37.8639 44.9341 38.5375C47.0206 39.211 48.8836 40.1839 50.523 41.4562C52.1623 42.7284 53.4664 44.3374 54.4351 46.2833C55.4784 48.1542 56 50.4742 56 53.2432C56 55.9374 55.4784 58.2199 54.4351 60.0909C53.4664 61.9619 52.1623 63.5335 50.523 64.8057C48.9581 66.0031 47.1697 66.976 45.1577 67.7244C43.1457 68.3979 41.0965 68.9218 39.01 69.296C36.9235 69.5954 34.9115 69.7824 32.974 69.8573C31.1111 69.9321 29.509 69.9695 28.1677 69.9695V61.7747C29.3599 61.7747 31.0366 61.8121 33.1976 61.887C35.3586 61.9618 37.4824 61.7747 39.5689 61.3257C41.7299 60.8767 43.5928 60.0534 45.1577 58.856C46.7226 57.6586 47.505 55.7877 47.505 53.2431C47.505 51.3722 47.0579 49.8754 46.1637 48.7528C45.2695 47.6303 44.1144 46.7696 42.6986 46.1709C41.3573 45.5722 39.8669 45.198 38.2275 45.0483C36.6627 44.8987 35.1723 44.8238 33.7565 44.8238H19.4491C16.5429 44.8238 13.8975 44.4496 11.513 43.7013C9.12842 42.9529 7.07917 41.9051 5.36526 40.558C3.65136 39.1361 2.31005 37.4523 1.34132 35.5064C0.447112 33.5607 0 31.3903 0 28.9955C0 26.0768 0.707924 23.6446 2.12376 21.6988C3.53959 19.753 5.36528 18.2188 7.60081 17.0962C9.83633 15.8988 12.2954 15.0382 14.978 14.5143C17.7352 13.9905 20.4178 13.7285 23.026 13.7285H56V22.2601L19.4491 22.4846C18.7785 22.5594 17.8097 22.7091 16.5429 22.9336C15.2761 23.0833 14.0093 23.3826 12.7425 23.8317C11.5502 24.2807 10.4697 24.9543 9.501 25.8523C8.60679 26.6755 8.15968 27.7981 8.15968 29.22V29.2201Z" fill="#3A3A3C"/>
<path d="M13.8782 0H43.2959V8.98937H13.8782V0Z" fill="#3A3A3C"/>
<path d="M23.0391 56.46C21.8841 56.46 20.7404 56.6868 19.6733 57.1276C18.6062 57.5683 17.6366 58.2144 16.8199 59.0288C16.0032 59.8433 15.3554 60.8101 14.9135 61.8742C14.4715 62.9383 14.2441 64.0788 14.2441 65.2306C14.2443 67.5564 15.171 69.787 16.8203 71.4315C18.4697 73.0761 20.7066 74 23.0391 74C25.3715 74 27.6084 73.0761 29.2578 71.4315C30.9071 69.787 31.8338 67.5564 31.834 65.2306C31.8341 64.0788 31.6066 62.9383 31.1646 61.8742C30.7227 60.8101 30.0749 59.8433 29.2582 59.0288C28.4415 58.2144 27.4719 57.5684 26.4048 57.1276C25.3378 56.6868 24.1941 56.46 23.0391 56.46ZM23.0391 62.0233C23.886 62.0233 24.6983 62.3612 25.2972 62.9627C25.8961 63.5642 26.2326 64.3799 26.2326 65.2306C26.2326 66.0812 25.8961 66.8969 25.2972 67.4984C24.6983 68.0999 23.886 68.4378 23.0391 68.4378C22.1921 68.4378 21.3798 68.0999 20.7809 67.4984C20.182 66.8969 19.8455 66.0812 19.8455 65.2306C19.8455 64.3799 20.182 63.5642 20.7809 62.9627C21.3798 62.3612 22.1921 62.0233 23.0391 62.0233Z" fill="#D72D35"/>
</svg>
