<?xml version="1.0" encoding="UTF-8" standalone="no"?>
<svg
   xmlns:dc="http://purl.org/dc/elements/1.1/"
   xmlns:cc="http://creativecommons.org/ns#"
   xmlns:rdf="http://www.w3.org/1999/02/22-rdf-syntax-ns#"
   xmlns:svg="http://www.w3.org/2000/svg"
   xmlns="http://www.w3.org/2000/svg"
   xmlns:sodipodi="http://sodipodi.sourceforge.net/DTD/sodipodi-0.dtd"
   xmlns:inkscape="http://www.inkscape.org/namespaces/inkscape"
   sodipodi:docname="sume-icon.svg"
   inkscape:version="1.0 (4035a4fb49, 2020-05-01)"
   id="svg135"
   version="1.1"
   viewBox="0 0 53.974994 53.975002"
   height="204"
   width="204">
  <defs
     id="defs129" />
  <sodipodi:namedview
     units="px"
     inkscape:window-maximized="1"
     inkscape:window-y="0"
     inkscape:window-x="0"
     inkscape:window-height="1016"
     inkscape:window-width="2560"
     fit-margin-bottom="10"
     fit-margin-right="10"
     lock-margins="true"
     fit-margin-top="10"
     fit-margin-left="10"
     showgrid="false"
     inkscape:document-rotation="0"
     inkscape:current-layer="layer1"
     inkscape:document-units="mm"
     inkscape:cy="162.49012"
     inkscape:cx="310.32001"
     inkscape:zoom="1.979899"
     inkscape:pageshadow="2"
     inkscape:pageopacity="0.0"
     borderopacity="1.0"
     bordercolor="#666666"
     pagecolor="#ffffff"
     id="base" />
  <metadata
     id="metadata132">
    <rdf:RDF>
      <cc:Work
         rdf:about="">
        <dc:format>image/svg+xml</dc:format>
        <dc:type
           rdf:resource="http://purl.org/dc/dcmitype/StillImage" />
        <dc:title></dc:title>
      </cc:Work>
    </rdf:RDF>
  </metadata>
  <g
     transform="translate(-12.538387,-6.9202648)"
     id="layer1"
     inkscape:groupmode="layer"
     inkscape:label="Layer 1">
    <path
       d="m 30.417809,30.351448 q 0,1.847273 1.488081,2.514344 1.539394,0.667071 3.694545,0.718384 h 3.848485 q 0.923636,0 2.257778,0.05131 1.334141,0.05131 2.770909,0.307879 1.436768,0.205252 2.822222,0.66707 1.436768,0.461818 2.565657,1.334142 1.128889,0.872323 1.795959,2.206464 0.718384,1.282829 0.718384,3.181415 0,1.847272 -0.718384,3.130101 -0.66707,1.282828 -1.795959,2.155151 -1.077576,0.82101 -2.463031,1.334142 -1.385454,0.461818 -2.822222,0.718383 -1.436767,0.205253 -2.770909,0.256566 -1.282828,0.05131 -2.206465,0.05131 v -3.745858 q 0.821011,0 2.309091,0.05131 1.488081,0.05131 2.924849,-0.256566 1.488081,-0.307879 2.565656,-1.128889 1.077576,-0.82101 1.077576,-2.565656 0,-1.282829 -0.615757,-2.052526 Q 47.248516,38.510236 46.273567,38.099731 45.34993,37.689226 44.221041,37.5866 43.143466,37.483974 42.168516,37.483974 h -6.568081 q -2.001212,0 -3.643232,-0.513132 -1.64202,-0.513131 -2.822223,-1.436767 -1.180202,-0.97495 -1.847272,-2.309091 -0.615758,-1.334142 -0.615758,-2.976162 0,-2.001212 0.97495,-3.335353 0.974949,-1.334142 2.514343,-2.103839 1.539394,-0.82101 3.386667,-1.180202 1.898586,-0.359192 3.694545,-0.359192 h 15.137374 v 3.899798 L 35.600435,27.27266 q -0.461818,0.05131 -1.334141,0.205253 -0.872324,0.102626 -1.744647,0.410505 -0.82101,0.307879 -1.488081,0.923636 -0.615757,0.564445 -0.615757,1.539394 z"
       id="path161"
       style="font-style:normal;font-variant:normal;font-weight:normal;font-stretch:normal;font-size:40px;line-height:125%;font-family:'Dissolve Regular';-inkscape-font-specification:'Dissolve Regular, ';letter-spacing:0px;word-spacing:0px;fill:#ffffff;fill-opacity:1;stroke:none;stroke-width:1.28283px;stroke-linecap:butt;stroke-linejoin:miter;stroke-opacity:1" />
    <g
       transform="matrix(1.2828283,0,0,1.2828283,-390.94458,-193.64052)"
       style="font-style:normal;font-weight:normal;font-size:40px;line-height:125%;font-family:sans-serif;letter-spacing:0px;word-spacing:0px;fill:#ffffff;fill-opacity:1;stroke:none;stroke-width:1px;stroke-linecap:butt;stroke-linejoin:miter;stroke-opacity:1"
       id="text3386-54-3-5"
       aria-label="-">
      <path
         style="fill:#ffffff"
         id="path164"
         d="m 330.50998,164.19608 h 10.52734 v 3.20312 h -10.52734 z" />
    </g>
    <path
       transform="matrix(0.26458333,0,0,0.26458333,12.538387,6.9202648)"
       d="M 93.392578 145.23047 A 5.5412349 5.5412349 0 0 0 93.201172 145.23438 A 5.5412349 5.5412349 0 0 0 93.003906 145.24414 A 5.5412349 5.5412349 0 0 0 92.806641 145.26172 A 5.5412349 5.5412349 0 0 0 92.609375 145.28516 A 5.5412349 5.5412349 0 0 0 92.414062 145.31641 A 5.5412349 5.5412349 0 0 0 92.220703 145.35547 A 5.5412349 5.5412349 0 0 0 92.027344 145.40039 A 5.5412349 5.5412349 0 0 0 91.835938 145.45312 A 5.5412349 5.5412349 0 0 0 91.648438 145.51172 A 5.5412349 5.5412349 0 0 0 91.460938 145.57812 A 5.5412349 5.5412349 0 0 0 91.277344 145.65039 A 5.5412349 5.5412349 0 0 0 91.095703 145.72852 A 5.5412349 5.5412349 0 0 0 90.916016 145.81445 A 5.5412349 5.5412349 0 0 0 90.740234 145.90625 A 5.5412349 5.5412349 0 0 0 90.568359 146.00391 A 5.5412349 5.5412349 0 0 0 90.400391 146.10742 A 5.5412349 5.5412349 0 0 0 90.236328 146.2168 A 5.5412349 5.5412349 0 0 0 90.074219 146.33398 A 5.5412349 5.5412349 0 0 0 89.917969 146.45508 A 5.5412349 5.5412349 0 0 0 89.767578 146.58203 A 5.5412349 5.5412349 0 0 0 89.619141 146.71289 A 5.5412349 5.5412349 0 0 0 89.476562 146.85156 A 5.5412349 5.5412349 0 0 0 89.339844 146.99414 A 5.5412349 5.5412349 0 0 0 89.207031 147.14062 A 5.5412349 5.5412349 0 0 0 89.080078 147.29297 A 5.5412349 5.5412349 0 0 0 88.958984 147.44922 A 5.5412349 5.5412349 0 0 0 88.84375 147.60938 A 5.5412349 5.5412349 0 0 0 88.732422 147.77344 A 5.5412349 5.5412349 0 0 0 88.628906 147.94141 A 5.5412349 5.5412349 0 0 0 88.53125 148.11328 A 5.5412349 5.5412349 0 0 0 88.439453 148.28906 A 5.5412349 5.5412349 0 0 0 88.353516 148.46875 A 5.5412349 5.5412349 0 0 0 88.273438 148.65039 A 5.5412349 5.5412349 0 0 0 88.201172 148.83398 A 5.5412349 5.5412349 0 0 0 88.136719 149.01953 A 5.5412349 5.5412349 0 0 0 88.076172 149.20898 A 5.5412349 5.5412349 0 0 0 88.023438 149.40039 A 5.5412349 5.5412349 0 0 0 87.978516 149.5918 A 5.5412349 5.5412349 0 0 0 87.939453 149.78711 A 5.5412349 5.5412349 0 0 0 87.908203 149.98242 A 5.5412349 5.5412349 0 0 0 87.884766 150.17773 A 5.5412349 5.5412349 0 0 0 87.865234 150.375 A 5.5412349 5.5412349 0 0 0 87.855469 150.57422 A 5.5412349 5.5412349 0 0 0 87.851562 150.77148 A 5.5412349 5.5412349 0 0 0 87.855469 150.96289 A 5.5412349 5.5412349 0 0 0 87.865234 151.16211 A 5.5412349 5.5412349 0 0 0 87.882812 151.35938 A 5.5412349 5.5412349 0 0 0 87.908203 151.55469 A 5.5412349 5.5412349 0 0 0 87.939453 151.75 A 5.5412349 5.5412349 0 0 0 87.978516 151.94531 A 5.5412349 5.5412349 0 0 0 88.023438 152.13672 A 5.5412349 5.5412349 0 0 0 88.076172 152.32812 A 5.5412349 5.5412349 0 0 0 88.134766 152.51758 A 5.5412349 5.5412349 0 0 0 88.199219 152.70312 A 5.5412349 5.5412349 0 0 0 88.271484 152.88867 A 5.5412349 5.5412349 0 0 0 88.351562 153.07031 A 5.5412349 5.5412349 0 0 0 88.435547 153.24805 A 5.5412349 5.5412349 0 0 0 88.527344 153.42383 A 5.5412349 5.5412349 0 0 0 88.625 153.5957 A 5.5412349 5.5412349 0 0 0 88.730469 153.76367 A 5.5412349 5.5412349 0 0 0 88.839844 153.92969 A 5.5412349 5.5412349 0 0 0 88.955078 154.08984 A 5.5412349 5.5412349 0 0 0 89.076172 154.24609 A 5.5412349 5.5412349 0 0 0 89.203125 154.39844 A 5.5412349 5.5412349 0 0 0 89.335938 154.54492 A 5.5412349 5.5412349 0 0 0 89.472656 154.6875 A 5.5412349 5.5412349 0 0 0 89.615234 154.82422 A 5.5412349 5.5412349 0 0 0 89.761719 154.95703 A 5.5412349 5.5412349 0 0 0 89.914062 155.08398 A 5.5412349 5.5412349 0 0 0 90.070312 155.20508 A 5.5412349 5.5412349 0 0 0 90.230469 155.32227 A 5.5412349 5.5412349 0 0 0 90.396484 155.43164 A 5.5412349 5.5412349 0 0 0 90.564453 155.53516 A 5.5412349 5.5412349 0 0 0 90.736328 155.63477 A 5.5412349 5.5412349 0 0 0 90.912109 155.72656 A 5.5412349 5.5412349 0 0 0 91.089844 155.81055 A 5.5412349 5.5412349 0 0 0 91.271484 155.89062 A 5.5412349 5.5412349 0 0 0 91.455078 155.96289 A 5.5412349 5.5412349 0 0 0 91.642578 156.0293 A 5.5412349 5.5412349 0 0 0 91.832031 156.08789 A 5.5412349 5.5412349 0 0 0 92.021484 156.14062 A 5.5412349 5.5412349 0 0 0 92.214844 156.18555 A 5.5412349 5.5412349 0 0 0 92.408203 156.22461 A 5.5412349 5.5412349 0 0 0 92.603516 156.25586 A 5.5412349 5.5412349 0 0 0 92.800781 156.28125 A 5.5412349 5.5412349 0 0 0 92.998047 156.29883 A 5.5412349 5.5412349 0 0 0 93.195312 156.30859 A 5.5412349 5.5412349 0 0 0 93.392578 156.3125 A 5.5412349 5.5412349 0 0 0 93.585938 156.30859 A 5.5412349 5.5412349 0 0 0 93.783203 156.29883 A 5.5412349 5.5412349 0 0 0 93.980469 156.28125 A 5.5412349 5.5412349 0 0 0 94.177734 156.25781 A 5.5412349 5.5412349 0 0 0 94.373047 156.22461 A 5.5412349 5.5412349 0 0 0 94.566406 156.1875 A 5.5412349 5.5412349 0 0 0 94.759766 156.14062 A 5.5412349 5.5412349 0 0 0 94.949219 156.08984 A 5.5412349 5.5412349 0 0 0 95.138672 156.03125 A 5.5412349 5.5412349 0 0 0 95.326172 155.96484 A 5.5412349 5.5412349 0 0 0 95.509766 155.89258 A 5.5412349 5.5412349 0 0 0 95.691406 155.8125 A 5.5412349 5.5412349 0 0 0 95.871094 155.72852 A 5.5412349 5.5412349 0 0 0 96.044922 155.63672 A 5.5412349 5.5412349 0 0 0 96.216797 155.53906 A 5.5412349 5.5412349 0 0 0 96.386719 155.43555 A 5.5412349 5.5412349 0 0 0 96.550781 155.32422 A 5.5412349 5.5412349 0 0 0 96.710938 155.20898 A 5.5412349 5.5412349 0 0 0 96.867188 155.08789 A 5.5412349 5.5412349 0 0 0 97.019531 154.96094 A 5.5412349 5.5412349 0 0 0 97.167969 154.82812 A 5.5412349 5.5412349 0 0 0 97.308594 154.69141 A 5.5412349 5.5412349 0 0 0 97.447266 154.54883 A 5.5412349 5.5412349 0 0 0 97.580078 154.40234 A 5.5412349 5.5412349 0 0 0 97.707031 154.25 A 5.5412349 5.5412349 0 0 0 97.828125 154.09375 A 5.5412349 5.5412349 0 0 0 97.943359 153.93359 A 5.5412349 5.5412349 0 0 0 98.054688 153.76953 A 5.5412349 5.5412349 0 0 0 98.158203 153.59961 A 5.5412349 5.5412349 0 0 0 98.255859 153.42773 A 5.5412349 5.5412349 0 0 0 98.347656 153.25391 A 5.5412349 5.5412349 0 0 0 98.433594 153.07422 A 5.5412349 5.5412349 0 0 0 98.511719 152.89258 A 5.5412349 5.5412349 0 0 0 98.583984 152.70898 A 5.5412349 5.5412349 0 0 0 98.650391 152.52148 A 5.5412349 5.5412349 0 0 0 98.708984 152.33398 A 5.5412349 5.5412349 0 0 0 98.761719 152.14258 A 5.5412349 5.5412349 0 0 0 98.808594 151.94922 A 5.5412349 5.5412349 0 0 0 98.845703 151.75586 A 5.5412349 5.5412349 0 0 0 98.878906 151.56055 A 5.5412349 5.5412349 0 0 0 98.902344 151.36328 A 5.5412349 5.5412349 0 0 0 98.919922 151.16602 A 5.5412349 5.5412349 0 0 0 98.931641 150.96875 A 5.5412349 5.5412349 0 0 0 98.933594 150.77148 A 5.5412349 5.5412349 0 0 0 98.931641 150.57812 A 5.5412349 5.5412349 0 0 0 98.919922 150.38086 A 5.5412349 5.5412349 0 0 0 98.902344 150.18359 A 5.5412349 5.5412349 0 0 0 98.878906 149.98828 A 5.5412349 5.5412349 0 0 0 98.847656 149.79297 A 5.5412349 5.5412349 0 0 0 98.808594 149.59766 A 5.5412349 5.5412349 0 0 0 98.763672 149.40625 A 5.5412349 5.5412349 0 0 0 98.710938 149.21484 A 5.5412349 5.5412349 0 0 0 98.652344 149.02539 A 5.5412349 5.5412349 0 0 0 98.585938 148.83789 A 5.5412349 5.5412349 0 0 0 98.513672 148.6543 A 5.5412349 5.5412349 0 0 0 98.435547 148.47266 A 5.5412349 5.5412349 0 0 0 98.349609 148.29492 A 5.5412349 5.5412349 0 0 0 98.257812 148.11914 A 5.5412349 5.5412349 0 0 0 98.160156 147.94727 A 5.5412349 5.5412349 0 0 0 98.056641 147.7793 A 5.5412349 5.5412349 0 0 0 97.947266 147.61328 A 5.5412349 5.5412349 0 0 0 97.832031 147.45312 A 5.5412349 5.5412349 0 0 0 97.708984 147.29688 A 5.5412349 5.5412349 0 0 0 97.582031 147.14453 A 5.5412349 5.5412349 0 0 0 97.451172 146.99805 A 5.5412349 5.5412349 0 0 0 97.3125 146.85547 A 5.5412349 5.5412349 0 0 0 97.171875 146.7168 A 5.5412349 5.5412349 0 0 0 97.023438 146.58594 A 5.5412349 5.5412349 0 0 0 96.871094 146.45898 A 5.5412349 5.5412349 0 0 0 96.714844 146.33594 A 5.5412349 5.5412349 0 0 0 96.554688 146.2207 A 5.5412349 5.5412349 0 0 0 96.390625 146.11133 A 5.5412349 5.5412349 0 0 0 96.222656 146.00586 A 5.5412349 5.5412349 0 0 0 96.050781 145.9082 A 5.5412349 5.5412349 0 0 0 95.875 145.81641 A 5.5412349 5.5412349 0 0 0 95.697266 145.73047 A 5.5412349 5.5412349 0 0 0 95.515625 145.65234 A 5.5412349 5.5412349 0 0 0 95.330078 145.58008 A 5.5412349 5.5412349 0 0 0 95.144531 145.51367 A 5.5412349 5.5412349 0 0 0 94.955078 145.45508 A 5.5412349 5.5412349 0 0 0 94.763672 145.40234 A 5.5412349 5.5412349 0 0 0 94.572266 145.35742 A 5.5412349 5.5412349 0 0 0 94.376953 145.31836 A 5.5412349 5.5412349 0 0 0 94.181641 145.28711 A 5.5412349 5.5412349 0 0 0 93.986328 145.26172 A 5.5412349 5.5412349 0 0 0 93.789062 145.24414 A 5.5412349 5.5412349 0 0 0 93.591797 145.23438 A 5.5412349 5.5412349 0 0 0 93.392578 145.23047 z "
       style="fill:none;fill-opacity:1;stroke-width:4.84849"
       id="path3402-5-0-9" />
    <path
       transform="matrix(0.26458333,0,0,0.26458333,12.538387,6.9202648)"
       d="M 93.392578 135.61914 A 15.259741 15.151515 0 0 0 78.132812 150.77148 A 15.259741 15.151515 0 0 0 93.392578 165.92188 A 15.259741 15.151515 0 0 0 108.65234 150.77148 A 15.259741 15.151515 0 0 0 93.392578 135.61914 z M 93.392578 145.23047 A 5.5412349 5.5412349 0 0 1 93.591797 145.23438 A 5.5412349 5.5412349 0 0 1 93.789062 145.24414 A 5.5412349 5.5412349 0 0 1 93.986328 145.26172 A 5.5412349 5.5412349 0 0 1 94.181641 145.28711 A 5.5412349 5.5412349 0 0 1 94.376953 145.31836 A 5.5412349 5.5412349 0 0 1 94.572266 145.35742 A 5.5412349 5.5412349 0 0 1 94.763672 145.40234 A 5.5412349 5.5412349 0 0 1 94.955078 145.45508 A 5.5412349 5.5412349 0 0 1 95.144531 145.51367 A 5.5412349 5.5412349 0 0 1 95.330078 145.58008 A 5.5412349 5.5412349 0 0 1 95.515625 145.65234 A 5.5412349 5.5412349 0 0 1 95.697266 145.73047 A 5.5412349 5.5412349 0 0 1 95.875 145.81641 A 5.5412349 5.5412349 0 0 1 96.050781 145.9082 A 5.5412349 5.5412349 0 0 1 96.222656 146.00586 A 5.5412349 5.5412349 0 0 1 96.390625 146.11133 A 5.5412349 5.5412349 0 0 1 96.554688 146.2207 A 5.5412349 5.5412349 0 0 1 96.714844 146.33594 A 5.5412349 5.5412349 0 0 1 96.871094 146.45898 A 5.5412349 5.5412349 0 0 1 97.023438 146.58594 A 5.5412349 5.5412349 0 0 1 97.171875 146.7168 A 5.5412349 5.5412349 0 0 1 97.3125 146.85547 A 5.5412349 5.5412349 0 0 1 97.451172 146.99805 A 5.5412349 5.5412349 0 0 1 97.582031 147.14453 A 5.5412349 5.5412349 0 0 1 97.708984 147.29688 A 5.5412349 5.5412349 0 0 1 97.832031 147.45312 A 5.5412349 5.5412349 0 0 1 97.947266 147.61328 A 5.5412349 5.5412349 0 0 1 98.056641 147.7793 A 5.5412349 5.5412349 0 0 1 98.160156 147.94727 A 5.5412349 5.5412349 0 0 1 98.257812 148.11914 A 5.5412349 5.5412349 0 0 1 98.349609 148.29492 A 5.5412349 5.5412349 0 0 1 98.435547 148.47266 A 5.5412349 5.5412349 0 0 1 98.513672 148.6543 A 5.5412349 5.5412349 0 0 1 98.585938 148.83789 A 5.5412349 5.5412349 0 0 1 98.652344 149.02539 A 5.5412349 5.5412349 0 0 1 98.710938 149.21484 A 5.5412349 5.5412349 0 0 1 98.763672 149.40625 A 5.5412349 5.5412349 0 0 1 98.808594 149.59766 A 5.5412349 5.5412349 0 0 1 98.847656 149.79297 A 5.5412349 5.5412349 0 0 1 98.878906 149.98828 A 5.5412349 5.5412349 0 0 1 98.902344 150.18359 A 5.5412349 5.5412349 0 0 1 98.919922 150.38086 A 5.5412349 5.5412349 0 0 1 98.931641 150.57812 A 5.5412349 5.5412349 0 0 1 98.933594 150.77148 A 5.5412349 5.5412349 0 0 1 98.931641 150.96875 A 5.5412349 5.5412349 0 0 1 98.919922 151.16602 A 5.5412349 5.5412349 0 0 1 98.902344 151.36328 A 5.5412349 5.5412349 0 0 1 98.878906 151.56055 A 5.5412349 5.5412349 0 0 1 98.845703 151.75586 A 5.5412349 5.5412349 0 0 1 98.808594 151.94922 A 5.5412349 5.5412349 0 0 1 98.761719 152.14258 A 5.5412349 5.5412349 0 0 1 98.708984 152.33398 A 5.5412349 5.5412349 0 0 1 98.650391 152.52148 A 5.5412349 5.5412349 0 0 1 98.583984 152.70898 A 5.5412349 5.5412349 0 0 1 98.511719 152.89258 A 5.5412349 5.5412349 0 0 1 98.433594 153.07422 A 5.5412349 5.5412349 0 0 1 98.347656 153.25391 A 5.5412349 5.5412349 0 0 1 98.255859 153.42773 A 5.5412349 5.5412349 0 0 1 98.158203 153.59961 A 5.5412349 5.5412349 0 0 1 98.054688 153.76953 A 5.5412349 5.5412349 0 0 1 97.943359 153.93359 A 5.5412349 5.5412349 0 0 1 97.828125 154.09375 A 5.5412349 5.5412349 0 0 1 97.707031 154.25 A 5.5412349 5.5412349 0 0 1 97.580078 154.40234 A 5.5412349 5.5412349 0 0 1 97.447266 154.54883 A 5.5412349 5.5412349 0 0 1 97.308594 154.69141 A 5.5412349 5.5412349 0 0 1 97.167969 154.82812 A 5.5412349 5.5412349 0 0 1 97.019531 154.96094 A 5.5412349 5.5412349 0 0 1 96.867188 155.08789 A 5.5412349 5.5412349 0 0 1 96.710938 155.20898 A 5.5412349 5.5412349 0 0 1 96.550781 155.32422 A 5.5412349 5.5412349 0 0 1 96.386719 155.43555 A 5.5412349 5.5412349 0 0 1 96.216797 155.53906 A 5.5412349 5.5412349 0 0 1 96.044922 155.63672 A 5.5412349 5.5412349 0 0 1 95.871094 155.72852 A 5.5412349 5.5412349 0 0 1 95.691406 155.8125 A 5.5412349 5.5412349 0 0 1 95.509766 155.89258 A 5.5412349 5.5412349 0 0 1 95.326172 155.96484 A 5.5412349 5.5412349 0 0 1 95.138672 156.03125 A 5.5412349 5.5412349 0 0 1 94.949219 156.08984 A 5.5412349 5.5412349 0 0 1 94.759766 156.14062 A 5.5412349 5.5412349 0 0 1 94.566406 156.1875 A 5.5412349 5.5412349 0 0 1 94.373047 156.22461 A 5.5412349 5.5412349 0 0 1 94.177734 156.25781 A 5.5412349 5.5412349 0 0 1 93.980469 156.28125 A 5.5412349 5.5412349 0 0 1 93.783203 156.29883 A 5.5412349 5.5412349 0 0 1 93.585938 156.30859 A 5.5412349 5.5412349 0 0 1 93.392578 156.3125 A 5.5412349 5.5412349 0 0 1 93.195312 156.30859 A 5.5412349 5.5412349 0 0 1 92.998047 156.29883 A 5.5412349 5.5412349 0 0 1 92.800781 156.28125 A 5.5412349 5.5412349 0 0 1 92.603516 156.25586 A 5.5412349 5.5412349 0 0 1 92.408203 156.22461 A 5.5412349 5.5412349 0 0 1 92.214844 156.18555 A 5.5412349 5.5412349 0 0 1 92.021484 156.14062 A 5.5412349 5.5412349 0 0 1 91.832031 156.08789 A 5.5412349 5.5412349 0 0 1 91.642578 156.0293 A 5.5412349 5.5412349 0 0 1 91.455078 155.96289 A 5.5412349 5.5412349 0 0 1 91.271484 155.89062 A 5.5412349 5.5412349 0 0 1 91.089844 155.81055 A 5.5412349 5.5412349 0 0 1 90.912109 155.72656 A 5.5412349 5.5412349 0 0 1 90.736328 155.63477 A 5.5412349 5.5412349 0 0 1 90.564453 155.53516 A 5.5412349 5.5412349 0 0 1 90.396484 155.43164 A 5.5412349 5.5412349 0 0 1 90.230469 155.32227 A 5.5412349 5.5412349 0 0 1 90.070312 155.20508 A 5.5412349 5.5412349 0 0 1 89.914062 155.08398 A 5.5412349 5.5412349 0 0 1 89.761719 154.95703 A 5.5412349 5.5412349 0 0 1 89.615234 154.82422 A 5.5412349 5.5412349 0 0 1 89.472656 154.6875 A 5.5412349 5.5412349 0 0 1 89.335938 154.54492 A 5.5412349 5.5412349 0 0 1 89.203125 154.39844 A 5.5412349 5.5412349 0 0 1 89.076172 154.24609 A 5.5412349 5.5412349 0 0 1 88.955078 154.08984 A 5.5412349 5.5412349 0 0 1 88.839844 153.92969 A 5.5412349 5.5412349 0 0 1 88.730469 153.76367 A 5.5412349 5.5412349 0 0 1 88.625 153.5957 A 5.5412349 5.5412349 0 0 1 88.527344 153.42383 A 5.5412349 5.5412349 0 0 1 88.435547 153.24805 A 5.5412349 5.5412349 0 0 1 88.351562 153.07031 A 5.5412349 5.5412349 0 0 1 88.271484 152.88867 A 5.5412349 5.5412349 0 0 1 88.199219 152.70312 A 5.5412349 5.5412349 0 0 1 88.134766 152.51758 A 5.5412349 5.5412349 0 0 1 88.076172 152.32812 A 5.5412349 5.5412349 0 0 1 88.023438 152.13672 A 5.5412349 5.5412349 0 0 1 87.978516 151.94531 A 5.5412349 5.5412349 0 0 1 87.939453 151.75 A 5.5412349 5.5412349 0 0 1 87.908203 151.55469 A 5.5412349 5.5412349 0 0 1 87.882812 151.35938 A 5.5412349 5.5412349 0 0 1 87.865234 151.16211 A 5.5412349 5.5412349 0 0 1 87.855469 150.96289 A 5.5412349 5.5412349 0 0 1 87.851562 150.77148 A 5.5412349 5.5412349 0 0 1 87.855469 150.57422 A 5.5412349 5.5412349 0 0 1 87.865234 150.375 A 5.5412349 5.5412349 0 0 1 87.884766 150.17773 A 5.5412349 5.5412349 0 0 1 87.908203 149.98242 A 5.5412349 5.5412349 0 0 1 87.939453 149.78711 A 5.5412349 5.5412349 0 0 1 87.978516 149.5918 A 5.5412349 5.5412349 0 0 1 88.023438 149.40039 A 5.5412349 5.5412349 0 0 1 88.076172 149.20898 A 5.5412349 5.5412349 0 0 1 88.136719 149.01953 A 5.5412349 5.5412349 0 0 1 88.201172 148.83398 A 5.5412349 5.5412349 0 0 1 88.273438 148.65039 A 5.5412349 5.5412349 0 0 1 88.353516 148.46875 A 5.5412349 5.5412349 0 0 1 88.439453 148.28906 A 5.5412349 5.5412349 0 0 1 88.53125 148.11328 A 5.5412349 5.5412349 0 0 1 88.628906 147.94141 A 5.5412349 5.5412349 0 0 1 88.732422 147.77344 A 5.5412349 5.5412349 0 0 1 88.84375 147.60938 A 5.5412349 5.5412349 0 0 1 88.958984 147.44922 A 5.5412349 5.5412349 0 0 1 89.080078 147.29297 A 5.5412349 5.5412349 0 0 1 89.207031 147.14062 A 5.5412349 5.5412349 0 0 1 89.339844 146.99414 A 5.5412349 5.5412349 0 0 1 89.476562 146.85156 A 5.5412349 5.5412349 0 0 1 89.619141 146.71289 A 5.5412349 5.5412349 0 0 1 89.767578 146.58203 A 5.5412349 5.5412349 0 0 1 89.917969 146.45508 A 5.5412349 5.5412349 0 0 1 90.074219 146.33398 A 5.5412349 5.5412349 0 0 1 90.236328 146.2168 A 5.5412349 5.5412349 0 0 1 90.400391 146.10742 A 5.5412349 5.5412349 0 0 1 90.568359 146.00391 A 5.5412349 5.5412349 0 0 1 90.740234 145.90625 A 5.5412349 5.5412349 0 0 1 90.916016 145.81445 A 5.5412349 5.5412349 0 0 1 91.095703 145.72852 A 5.5412349 5.5412349 0 0 1 91.277344 145.65039 A 5.5412349 5.5412349 0 0 1 91.460938 145.57812 A 5.5412349 5.5412349 0 0 1 91.648438 145.51172 A 5.5412349 5.5412349 0 0 1 91.835938 145.45312 A 5.5412349 5.5412349 0 0 1 92.027344 145.40039 A 5.5412349 5.5412349 0 0 1 92.220703 145.35547 A 5.5412349 5.5412349 0 0 1 92.414062 145.31641 A 5.5412349 5.5412349 0 0 1 92.609375 145.28516 A 5.5412349 5.5412349 0 0 1 92.806641 145.26172 A 5.5412349 5.5412349 0 0 1 93.003906 145.24414 A 5.5412349 5.5412349 0 0 1 93.201172 145.23438 A 5.5412349 5.5412349 0 0 1 93.392578 145.23047 z "
       style="fill:#ffffff;fill-opacity:1;stroke-width:4.84849"
       id="path207" />
  </g>
</svg>
