<svg xmlns="http://www.w3.org/2000/svg" viewBox="0 0 144.87 42.532" height="160.751" width="547.54"><g aria-label="sume" style="font-style:normal;font-variant:normal;font-weight:400;font-stretch:normal;font-size:50.856px;line-height:125%;font-family:'Dissolve Regular';-inkscape-font-specification:'Dissolve Regular, ';letter-spacing:0;word-spacing:0;fill:#3a3a3c;fill-opacity:1;stroke:none;stroke-width:1.2714px;stroke-linecap:butt;stroke-linejoin:miter;stroke-opacity:1"><path d="M24.97 26.422q0 1.831 1.475 2.492 1.526.661 3.662.712h3.814q.915 0 2.237.051 1.323.05 2.747.305 1.424.204 2.797.661 1.424.458 2.543 1.323 1.118.864 1.78 2.186.711 1.272.711 3.153 0 1.831-.712 3.103-.66 1.271-1.78 2.136-1.067.813-2.44 1.322-1.374.458-2.798.712-1.424.203-2.746.254-1.271.051-2.187.051V41.17q.814 0 2.289.051t2.899-.254q1.474-.305 2.542-1.119 1.068-.813 1.068-2.543 0-1.271-.61-2.034-.61-.763-1.576-1.17-.916-.406-2.035-.508-1.068-.102-2.034-.102h-6.51q-1.983 0-3.61-.508-1.628-.509-2.797-1.424-1.17-.967-1.831-2.289-.61-1.322-.61-2.95 0-1.983.966-3.305t2.492-2.085q1.525-.814 3.356-1.17 1.882-.356 3.662-.356h15.002v3.865l-16.63.102q-.457.05-1.322.203-.864.102-1.729.407-.814.305-1.475.916-.61.559-.61 1.525z" style="stroke-width:1.2714px" transform="translate(-16.258 -7.503)"/><path d="M63.265 41.12q1.83 0 3.407-.712 1.627-.712 2.848-1.882 1.22-1.22 1.932-2.848.712-1.627.712-3.458v-.102h3.865v.102q0 2.644-1.017 4.984-1.017 2.288-2.746 4.017-1.729 1.73-4.068 2.747-2.34 1.017-4.933 1.017-2.645 0-4.984-1.017-2.289-1.018-4.018-2.747-1.729-1.729-2.746-4.017-1.017-2.34-1.017-4.984V19.455h3.865V32.22q0 1.83.66 3.458.713 1.627 1.883 2.848 1.22 1.17 2.848 1.882 1.627.712 3.509.712zM114.171 19.353q2.645 0 4.984 1.017 2.34 1.017 4.069 2.747 1.729 1.729 2.746 4.068 1.017 2.289 1.068 4.933l-.102 12.765h-3.814V32.118q0-1.882-.712-3.509-.661-1.627-1.882-2.797-1.22-1.22-2.848-1.882-1.627-.712-3.509-.712-1.83 0-3.458.712-1.576.661-2.797 1.882-1.22 1.17-1.932 2.797-.712 1.627-.712 3.51v12.764h-3.865V32.118q0-1.882-.712-3.509-.662-1.627-1.882-2.797-1.17-1.22-2.797-1.882-1.628-.712-3.51-.712-1.881 0-3.508.712-1.628.661-2.848 1.882-1.22 1.17-1.933 2.797-.66 1.627-.66 3.51h-3.815q0-2.645 1.017-4.934 1.017-2.34 2.746-4.068 1.73-1.73 4.018-2.747 2.34-1.017 4.984-1.017 3.458 0 6.306 1.679 2.899 1.627 4.526 4.322 1.73-2.695 4.526-4.322 2.848-1.679 6.306-1.679zM143.414 45.036q-2.645 0-4.984-.967-2.289-1.017-4.018-2.746-1.73-1.73-2.746-4.018-.966-2.339-.966-4.983 0-2.594.966-4.883 1.017-2.339 2.746-4.068 1.73-1.73 4.018-2.746 2.339-1.017 4.984-1.017 2.593 0 4.882 1.017 2.34 1.017 4.068 2.746 1.73 1.729 2.746 4.068 1.018 2.289 1.018 4.883v2.44h-12.714v-3.814h8.9q0-1.525-.713-2.898-.66-1.373-1.881-2.39-1.22-1.018-2.848-1.628-1.628-.61-3.458-.61-1.882 0-3.51.712-1.627.66-2.847 1.881-1.17 1.22-1.882 2.848-.661 1.628-.661 3.459 0 1.881.66 3.509.713 1.627 1.883 2.848 1.22 1.17 2.847 1.881 1.628.661 3.51.661z" style="fill:#3a3a3c;fill-opacity:1;stroke-width:1.2714px" transform="translate(-16.258 -7.503)"/></g><g style="font-style:normal;font-weight:400;font-size:50.856px;line-height:125%;font-family:sans-serif;letter-spacing:0;word-spacing:0;fill:#3a3a3c;fill-opacity:1;stroke:none;stroke-width:1.2714px;stroke-linecap:butt;stroke-linejoin:miter;stroke-opacity:1"><path d="M137.457 12.503h13.385v4.073h-13.385z" style="stroke-width:1.2714px" transform="translate(-16.258 -7.503)" aria-label="-"/></g><path style="fill:#d72d35;fill-opacity:1;stroke-width:1.2714" d="M78.197 30.022a4.002 3.973 0 0 1-4.001 3.973 4.002 3.973 0 0 1-4.002-3.973 4.002 3.973 0 0 1 4.002-3.973 4.002 3.973 0 0 1 4.001 3.973" transform="translate(-16.258 -7.503)"/><path style="fill:#fff;fill-opacity:1;stroke-width:1.2714" d="M75.649 30.022a1.453 1.453 0 0 1-1.453 1.453 1.453 1.453 0 0 1-1.453-1.453 1.453 1.453 0 0 1 1.453-1.453 1.453 1.453 0 0 1 1.453 1.453" transform="translate(-16.258 -7.503)"/></svg>