<?xml version="1.0" encoding="UTF-8" standalone="no"?>
<svg
   xmlns:dc="http://purl.org/dc/elements/1.1/"
   xmlns:cc="http://creativecommons.org/ns#"
   xmlns:rdf="http://www.w3.org/1999/02/22-rdf-syntax-ns#"
   xmlns:svg="http://www.w3.org/2000/svg"
   xmlns="http://www.w3.org/2000/svg"
   xmlns:sodipodi="http://sodipodi.sourceforge.net/DTD/sodipodi-0.dtd"
   xmlns:inkscape="http://www.inkscape.org/namespaces/inkscape"
   sodipodi:docname="sume-logo.svg"
   inkscape:version="1.0 (4035a4fb49, 2020-05-01)"
   id="svg133"
   version="1.1"
   viewBox="0 0 144.86996 42.53204"
   height="42.53204mm"
   width="144.86996mm">
  <defs
     id="defs127" />
  <sodipodi:namedview
     fit-margin-bottom="5"
     fit-margin-right="5"
     fit-margin-left="5"
     lock-margins="true"
     fit-margin-top="5"
     inkscape:window-maximized="1"
     inkscape:window-y="0"
     inkscape:window-x="0"
     inkscape:window-height="1016"
     inkscape:window-width="2560"
     inkscape:pagecheckerboard="true"
     showgrid="false"
     inkscape:document-rotation="0"
     inkscape:current-layer="layer1"
     inkscape:document-units="mm"
     inkscape:cy="18.486697"
     inkscape:cx="-103.80354"
     inkscape:zoom="0.7"
     inkscape:pageshadow="2"
     inkscape:pageopacity="0.0"
     borderopacity="1.0"
     bordercolor="#666666"
     pagecolor="#ffffff"
     id="base" />
  <metadata
     id="metadata130">
    <rdf:RDF>
      <cc:Work
         rdf:about="">
        <dc:format>image/svg+xml</dc:format>
        <dc:type
           rdf:resource="http://purl.org/dc/dcmitype/StillImage" />
        <dc:title></dc:title>
      </cc:Work>
    </rdf:RDF>
  </metadata>
  <g
     transform="translate(-16.257593,-7.503498)"
     id="layer1"
     inkscape:groupmode="layer"
     inkscape:label="Layer 1">
    <g
       aria-label="sume"
       id="text3336-9-06-2"
       style="font-style:normal;font-variant:normal;font-weight:normal;font-stretch:normal;font-size:50.856px;line-height:125%;font-family:'Dissolve Regular';-inkscape-font-specification:'Dissolve Regular, ';letter-spacing:0px;word-spacing:0px;fill:#3a3a3c;fill-opacity:1;stroke:none;stroke-width:1.2714px;stroke-linecap:butt;stroke-linejoin:miter;stroke-opacity:1">
      <path
         d="m 24.970081,26.422243 q 0,1.830816 1.474824,2.491944 1.52568,0.661128 3.661632,0.711984 h 3.8142 q 0.915408,0 2.237663,0.05086 1.322256,0.05086 2.746224,0.305136 1.423968,0.203424 2.79708,0.661128 1.423968,0.457704 2.5428,1.322256 1.118832,0.864552 1.77996,2.186808 0.711984,1.2714 0.711984,3.153072 0,1.830816 -0.711984,3.102216 -0.661128,1.2714 -1.77996,2.135951 -1.067976,0.813696 -2.441088,1.322256 -1.373112,0.457704 -2.79708,0.711984 -1.423968,0.203424 -2.746224,0.25428 -1.271399,0.05086 -2.186807,0.05086 v -3.712487 q 0.813696,0 2.288519,0.05086 1.474824,0.05086 2.898792,-0.25428 1.474824,-0.305136 2.5428,-1.118832 1.067976,-0.813696 1.067976,-2.5428 0,-1.2714 -0.610272,-2.03424 -0.610272,-0.76284 -1.576536,-1.169688 -0.915408,-0.406848 -2.03424,-0.50856 -1.067976,-0.101712 -2.03424,-0.101712 h -6.509567 q -1.983384,0 -3.610776,-0.50856 -1.627392,-0.50856 -2.79708,-1.423968 -1.169688,-0.966264 -1.830816,-2.28852 -0.610272,-1.322256 -0.610272,-2.949648 0,-1.983384 0.966264,-3.30564 0.966264,-1.322256 2.491944,-2.085096 1.52568,-0.813696 3.356496,-1.169688 1.881672,-0.355992 3.661632,-0.355992 h 15.002519 v 3.865056 l -16.629911,0.101712 q -0.457704,0.05086 -1.322256,0.203424 -0.864552,0.101712 -1.729104,0.406848 -0.813696,0.305136 -1.474824,0.915408 -0.610272,0.559416 -0.610272,1.52568 z"
         style="stroke-width:1.2714px"
         id="path14" />
      <path
         d="m 63.26459,41.119627 q 1.830816,0 3.407352,-0.711984 1.627392,-0.711984 2.847936,-1.881672 1.220544,-1.220544 1.932528,-2.847936 0.711984,-1.627392 0.711984,-3.458208 v -0.101712 h 3.865056 v 0.101712 q 0,2.644512 -1.01712,4.983888 -1.01712,2.28852 -2.746224,4.017624 -1.729104,1.729103 -4.06848,2.746223 -2.339376,1.01712 -4.933032,1.01712 -2.644512,0 -4.983888,-1.01712 -2.28852,-1.01712 -4.017624,-2.746223 -1.729104,-1.729104 -2.746224,-4.017624 -1.017119,-2.339376 -1.017119,-4.983888 V 19.454971 h 3.865055 v 12.764856 q 0,1.830816 0.661128,3.458208 0.711984,1.627392 1.881672,2.847936 1.220544,1.169688 2.847936,1.881672 1.627392,0.711984 3.509064,0.711984 z"
         style="fill:#3a3a3c;fill-opacity:1;stroke-width:1.2714px"
         id="path16" />
      <path
         d="m 114.17138,19.353259 q 2.64451,0 4.98388,1.01712 2.33938,1.01712 4.06848,2.746224 1.72911,1.729104 2.74623,4.06848 1.01712,2.28852 1.06797,4.933032 l -0.10171,12.764855 h -3.8142 V 32.118115 q 0,-1.881672 -0.71198,-3.509064 -0.66113,-1.627392 -1.88167,-2.79708 -1.22055,-1.220544 -2.84794,-1.881672 -1.62739,-0.711984 -3.50906,-0.711984 -1.83082,0 -3.45821,0.711984 -1.57654,0.661128 -2.79708,1.881672 -1.22055,1.169688 -1.93253,2.79708 -0.71198,1.627392 -0.71198,3.509064 V 44.88297 h -3.86506 V 32.118115 q 0,-1.881672 -0.71198,-3.509064 -0.66113,-1.627392 -1.881676,-2.79708 -1.169688,-1.220544 -2.79708,-1.881672 -1.627392,-0.711984 -3.509064,-0.711984 -1.881672,0 -3.509064,0.711984 -1.627392,0.661128 -2.847936,1.881672 -1.220544,1.169688 -1.932528,2.79708 -0.661128,1.627392 -0.661128,3.509064 h -3.8142 q 0,-2.644512 1.01712,-4.933032 1.01712,-2.339376 2.746224,-4.06848 1.729104,-1.729104 4.017624,-2.746224 2.339376,-1.01712 4.983888,-1.01712 3.458208,0 6.306144,1.678248 2.898796,1.627392 4.526186,4.32276 1.7291,-2.695368 4.52618,-4.32276 2.84794,-1.678248 6.30615,-1.678248 z"
         style="fill:#3a3a3c;fill-opacity:1;stroke-width:1.2714px"
         id="path18" />
      <path
         d="m 143.41356,45.035538 q -2.64451,0 -4.98389,-0.966264 -2.28852,-1.01712 -4.01762,-2.746223 -1.7291,-1.729104 -2.74622,-4.017624 -0.96627,-2.339376 -0.96627,-4.983888 0,-2.593656 0.96627,-4.882176 1.01712,-2.339376 2.74622,-4.06848 1.7291,-1.729104 4.01762,-2.746224 2.33938,-1.01712 4.98389,-1.01712 2.59366,0 4.88218,1.01712 2.33937,1.01712 4.06848,2.746224 1.7291,1.729104 2.74622,4.06848 1.01712,2.28852 1.01712,4.882176 v 2.441088 h -12.714 v -3.8142 h 8.8998 q 0,-1.52568 -0.71198,-2.898792 -0.66113,-1.373112 -1.88167,-2.390232 -1.22055,-1.01712 -2.84794,-1.627392 -1.62739,-0.610272 -3.45821,-0.610272 -1.88167,0 -3.50906,0.711984 -1.62739,0.661128 -2.84794,1.881672 -1.16969,1.220544 -1.88167,2.847936 -0.66113,1.627392 -0.66113,3.458208 0,1.881672 0.66113,3.509064 0.71198,1.627392 1.88167,2.847936 1.22055,1.169688 2.84794,1.881672 1.62739,0.661128 3.50906,0.661128 z"
         style="fill:#3a3a3c;fill-opacity:1;stroke-width:1.2714px"
         id="path20" />
    </g>
    <g
       aria-label="-"
       id="text3386-8-5"
       style="font-style:normal;font-weight:normal;font-size:50.856px;line-height:125%;font-family:sans-serif;letter-spacing:0px;word-spacing:0px;fill:#3a3a3c;fill-opacity:1;stroke:none;stroke-width:1.2714px;stroke-linecap:butt;stroke-linejoin:miter;stroke-opacity:1">
      <path
         d="m 137.45716,12.503498 h 13.38446 v 4.072453 h -13.38446 z"
         style="stroke-width:1.2714px"
         id="path23" />
    </g>
    <path
       id="path3402-2-2"
       style="fill:#d72d35;fill-opacity:1;stroke-width:1.2714"
       d="m 78.197283,30.021954 a 4.0015049,3.9731259 0 0 1 -4.001505,3.973126 4.0015049,3.9731259 0 0 1 -4.001505,-3.973126 4.0015049,3.9731259 0 0 1 4.001505,-3.973126 4.0015049,3.9731259 0 0 1 4.001505,3.973126" />
    <path
       id="path3402-7-0-2"
       style="fill:#ffffff;fill-opacity:1;stroke-width:1.2714"
       d="m 75.648835,30.021954 a 1.4530575,1.4530575 0 0 1 -1.453057,1.453057 1.4530575,1.4530575 0 0 1 -1.453058,-1.453057 1.4530575,1.4530575 0 0 1 1.453058,-1.453058 1.4530575,1.4530575 0 0 1 1.453057,1.453058" />
  </g>
</svg>
